/* XPM */
static char * logo_xpm[] = {
"80 61 201 2",
"  	c None",
". 	c #F6A746",
"+ 	c #F4A644",
"@ 	c #F4A43F",
"# 	c #F6A645",
"$ 	c #F5A536",
"% 	c #F5A030",
"& 	c #F99D19",
"* 	c #F99E1A",
"= 	c #F89D1C",
"- 	c #F99E1B",
"; 	c #F79F1B",
"> 	c #F79F1A",
", 	c #F89E1C",
"' 	c #F79E1B",
") 	c #F99D1A",
"! 	c #F5A135",
"~ 	c #F4A640",
"{ 	c #F3A642",
"] 	c #F7A029",
"^ 	c #F6A332",
"/ 	c #F2A94A",
"( 	c #F4AC52",
"_ 	c #F89E25",
": 	c #F79F1C",
"< 	c #F99E1C",
"[ 	c #F5A12E",
"} 	c #F4A433",
"| 	c #F99D1D",
"1 	c #F3A53A",
"2 	c #F2AD55",
"3 	c #F89E1A",
"4 	c #FA9D1B",
"5 	c #F89E1B",
"6 	c #FA9D1C",
"7 	c #F79E20",
"8 	c #F4A53A",
"9 	c #F89E19",
"0 	c #F69E21",
"a 	c #F7A433",
"b 	c #F6A334",
"c 	c #F6A43B",
"d 	c #F7A332",
"e 	c #F6A233",
"f 	c #F59F1D",
"g 	c #F89E1E",
"h 	c #F2AA46",
"i 	c #555859",
"j 	c #43484C",
"k 	c #464C4F",
"l 	c #F3A533",
"m 	c #F6A12C",
"n 	c #F3A73D",
"o 	c #F6A53A",
"p 	c #F7A026",
"q 	c #F89E1D",
"r 	c #F5A847",
"s 	c #43484D",
"t 	c #454A4E",
"u 	c #44494D",
"v 	c #41484E",
"w 	c #494E52",
"x 	c #F6A12B",
"y 	c #F7A12A",
"z 	c #F3A942",
"A 	c #F89F25",
"B 	c #F5A234",
"C 	c #474B4F",
"D 	c #464B4F",
"E 	c #4D5053",
"F 	c #F3A843",
"G 	c #F3A744",
"H 	c #484D50",
"I 	c #4A4E52",
"J 	c #4D5052",
"K 	c #42484D",
"L 	c #4A4E50",
"M 	c #515557",
"N 	c #525354",
"O 	c #4A4D50",
"P 	c #545658",
"Q 	c #4B5054",
"R 	c #4D5054",
"S 	c #4C5154",
"T 	c #474C50",
"U 	c #44484C",
"V 	c #4B5053",
"W 	c #45494D",
"X 	c #53565A",
"Y 	c #4D5154",
"Z 	c #43484B",
"` 	c #4F5255",
" .	c #505458",
"..	c #4D4F54",
"+.	c #45494C",
"@.	c #4C5054",
"#.	c #474C4F",
"$.	c #505557",
"%.	c #44494C",
"&.	c #4B5154",
"*.	c #43474C",
"=.	c #515558",
"-.	c #43494C",
";.	c #474B4E",
">.	c #42484C",
",.	c #505356",
"'.	c #4B4F52",
").	c #55575A",
"!.	c #4E5256",
"~.	c #43474B",
"{.	c #42494C",
"].	c #4A4E51",
"^.	c #55585B",
"/.	c #4E5155",
"(.	c #515456",
"_.	c #484B4E",
":.	c #4C5053",
"<.	c #42464A",
"[.	c #42474A",
"}.	c #494C50",
"|.	c #4E5255",
"1.	c #43474A",
"2.	c #484C4F",
"3.	c #525558",
"4.	c #4F5155",
"5.	c #464A4E",
"6.	c #4B4F53",
"7.	c #4F5256",
"8.	c #4E5356",
"9.	c #494D50",
"0.	c #464B4E",
"a.	c #4B4E52",
"b.	c #535558",
"c.	c #4C5155",
"d.	c #4C4F53",
"e.	c #484C50",
"f.	c #4F5356",
"g.	c #484D51",
"h.	c #525659",
"i.	c #464A4D",
"j.	c #4E5154",
"k.	c #494D51",
"l.	c #525456",
"m.	c #474A4E",
"n.	c #4F5357",
"o.	c #4D5155",
"p.	c #484B4F",
"q.	c #464A4F",
"r.	c #4B4D50",
"s.	c #505357",
"t.	c #505457",
"u.	c #42474B",
"v.	c #F5A025",
"w.	c #F7A028",
"x.	c #F3A741",
"y.	c #F4A745",
"z.	c #505559",
"A.	c #515559",
"B.	c #474D53",
"C.	c #43494E",
"D.	c #505456",
"E.	c #52565A",
"F.	c #41474A",
"G.	c #4F5458",
"H.	c #43494F",
"I.	c #454A4F",
"J.	c #4B4E51",
"K.	c #56595C",
"L.	c #40474A",
"M.	c #4D5153",
"N.	c #4F5459",
"O.	c #45484B",
"P.	c #42494D",
"Q.	c #4A4D51",
"R.	c #484C51",
"S.	c #53575A",
"T.	c #40484B",
"U.	c #4C4F52",
"V.	c #494E51",
"W.	c #44484D",
"X.	c #444A4E",
"Y.	c #4A4F53",
"Z.	c #585D5F",
"`.	c #56595B",
" +	c #44494E",
".+	c #41474B",
"++	c #4E5153",
"@+	c #40484A",
"#+	c #42474D",
"$+	c #525457",
"%+	c #54595C",
"&+	c #42474C",
"*+	c #545558",
"=+	c #54575A",
"-+	c #42464B",
";+	c #4D5357",
">+	c #F89F26",
",+	c #F9A023",
"'+	c #F5A745",
")+	c #F6A643",
"!+	c #F6A12F",
"                                                                                                                                                                ",
"                                                                          . + @ @ #                                                                             ",
"                                                                  $ % & * = - ; > * , ' ) ! ~                                                                   ",
"                                                            { ] - * * * * * * * * * * * * * * * ^ /                                                             ",
"                                                        ( _ : * * * * * * * * * * * * * * * * - - < [                                                           ",
"                                                      } | * * * * * * * * * * * * * * * * * * * * * * , 1                                                       ",
"                                                    2 3 , * * * * * * - 4 | 3 * * 5 - 6 - * * * * * * - 7                                                       ",
"                                                      8 < * * * * * * 9 0 a b c c d e f * * * * * * * g h   i                                                   ",
"                                                j k     l , 4 , 3 m n                     o p q 5 - | r     s t                                                 ",
"                                              u j v w     x * y                               z A , B     t j j C                                               ",
"                                            D j j j j E     F                                     G     H j j j j I                                             ",
"                                          J j j j j j K i                                             L v j j j j j M                                           ",
"                                          j j j j j j K                                               N K j j j j j u                                           ",
"                                        O j j j j j j P                                                 Q j j j j j j R                                         ",
"                                        j j j j j j S                                                     T j j j j j U                                         ",
"                                      V j j j j j W                         X     Y                         Z j j j j j `                                       ",
"                                      Z j j j j j  .                        ..    +.                        @.j j j j j #.                                      ",
"                                    $.s j j j j %.                        &...    *.=.                        j j j j j K                                       ",
"                                    S j j j j j @.                        -...    *.;.                        C j j j j >.,.                                    ",
"                                    '.j j j j j ).                      ` >...    j j                         Y K j j j j !.                                    ",
"                                    ~.j j j j j                         +.{...    j j ].                      ^.j j j j j /.                                    ",
"                                    >.j j j j ~.                      (.j {...    j j j                         j j j j j W                                     ",
"                                    >.j j j j Z                       _.j {...    j j j :.                      j j j j j ~.                                    ",
"                                    >.j j j j U                     '.K j {...    j j j K Y                     j j j j j <.                                    ",
"                                    >.j j j j [.                  }.j j j {...    j j j j j |.                  j j j j j 1.                                    ",
"                                    j j j j j Z                 2.K j j j {...    j j j j j K :.                j j j j j ;.                                    ",
"                                    ~.j j j j j               2.j j j j j {...    j j j j j j j ].            P j j j j j /.                                    ",
"                                    @.j j j j s 3.          2.j j j j j j >.4.    5.K j j j j j s 6.          :.j j j j >.7.                                    ",
"                                    8.j j j j K ].        D K j j j j j j 9.        C j j j j j j j '.        u j j j j K                                       ",
"                                      j j j j j j       0.j j j j j j j a.            D s j j j j j j 9.    b.j j j j j j                                       ",
"                                      u j j j j j c.  D v j j j j j j d.                e.j j j j j j K 2.  C j j j j j 6.                                      ",
"                                      f.j j j j j j t j j j j j j j '.                    g.j j j j j j j u j j j j j j h.                                      ",
"                                        Z j j j j j j j j j j j j 6.                        H s j j j j j j j j j j j i.                                        ",
"                                        j.K j j j j j j j j j j |.                            k.j j j j j j j j j j j l.                                        ",
"                                          u j j j j j j j j >.|.                                V K j j j j j j j j m.                                          ",
"                                          n.j j j j j j j j o.                                    @.j j j j j j j j                                             ",
"                                            I s j j j j j j p.                                    ;.j j j j j j j f.                                            ",
"                                              #.j j j j j j >.K Y                             ].K >.j j j j j j I                                               ",
"                                                q.j j j j j j j j j r.`                 f.H j j j j j j j j j g.                                                ",
"                                                  0.s j j j j j j j K s j j u 5.5.j j j j j j j j j j j j j ].                                                  ",
"                                                    w j j j j j j j j j j j j j j j j j j j j j j j j j j Y                                                     ",
"                                                      h.j K j j j j j j j j j j j j j j j j j j j j K D                                                         ",
"                                                          '.Z j j j j j j j j j j j j j j j j j j U s.                                                          ",
"                                                              j.5.j j j j j j j j j j j s K j C t.                                                              ",
"                                                                    !.6.%.u.j j j j u.C d.3.                                                                    ",
"                                                                                                                                                                ",
"                                                                                                                                                                ",
"                                                                                                                                                                ",
"                                                                                                                                                                ",
"                          v.w.                                                                                                                                  ",
"                          x.y.                                                                                                                                  ",
"b.j j s K K s K z.A.K B.        C.C.  a.K s K K K D.  K K K K K K K   n.K `     K u     6.K       u K E     K K K K K s j E.  K K K K K K R   F.~.        8.K   ",
"G.j :.        j H.  g.K (.    ].K f.  j I.            j 9.      n.j 3.  +.s   8.j j =.  >.J.    w j u j         K.j 2.      D u.        K u   L.*.        M.j   ",
"N.j J         Z v     j O.    j 9.    j P./.j.o.      j '.  Q.w R.Z l.  ,.K S.t 5.Z D G.K     (.K @.  >.0.        j 2.      j [.              T.j K j j *.{.j   ",
"N.j U.        Z v     !.j V.t W.      j X.3.` o.      j Y.  5.j s Z.      j j K `.J.>.j 0.    u  +    6.j ,.      j T       j .+        Q ++  @+#+Q.i.i.i.2.j   ",
"D.j t.  G.G.A.j K       C K >.=.      j W E.G.G.G.    j 6.    #.j 6.      '.j W     j j ,.  g.j $+       +j       j T       *.j %+G.G.=.K X.  @+&+        8.j   ",
"  *+  K >.Z Z j $+        ~.C         j Z Z Z Z Z D.  Z a.      e.&+g.      ~.f.    e.j   ,.Z I         S.*.2.    Z T       V Z Z Z Z Z j =+  L.-+        ;+Z   ",
"                                                                                                  >+,+'+                                                        ",
"                                                                                                  )+!+                                                          ",
"                                                                                                                                                                ",
"                                                                                                                                                                "};
